<mxfile host="app.diagrams.net" modified="2024-06-04T20:04:08.185Z" agent="Mozilla/5.0 (X11; Linux x86_64) AppleWebKit/537.36 (KHTML, like Gecko) Chrome/125.0.0.0 Safari/537.36" etag="ZNB8X_LGTtKu9uGl0OB2" version="24.4.13" type="device">
  <diagram name="Page-1" id="YT8BwphLUNQYeEK9pMnc">
    <mxGraphModel dx="1231" dy="618" grid="1" gridSize="10" guides="1" tooltips="1" connect="1" arrows="1" fold="1" page="1" pageScale="1" pageWidth="850" pageHeight="1100" math="0" shadow="0">
      <root>
        <mxCell id="0" />
        <mxCell id="1" parent="0" />
        <mxCell id="L1br38w3GBm4ngcBkR2K-2" value="&lt;font style=&quot;font-size: 16px;&quot;&gt;&lt;b&gt;Hittable tsv&lt;/b&gt;&lt;/font&gt;" style="shape=note;whiteSpace=wrap;html=1;backgroundOutline=1;darkOpacity=0.05;fillColor=#fff2cc;strokeColor=#d6b656;" parent="1" vertex="1">
          <mxGeometry x="40" y="40" width="120" height="120" as="geometry" />
        </mxCell>
        <mxCell id="L1br38w3GBm4ngcBkR2K-3" value="&lt;font style=&quot;font-size: 14px;&quot;&gt;&lt;b&gt;importVirusTable&lt;/b&gt;&lt;/font&gt;" style="rounded=0;whiteSpace=wrap;html=1;fillColor=#d5e8d4;strokeColor=#82b366;" parent="1" vertex="1">
          <mxGeometry x="40" y="200" width="120" height="60" as="geometry" />
        </mxCell>
        <mxCell id="L1br38w3GBm4ngcBkR2K-5" value="&lt;font style=&quot;font-size: 14px;&quot;&gt;&lt;b&gt;vh_file / vg_file&lt;/b&gt;&lt;/font&gt;" style="text;html=1;align=center;verticalAlign=middle;whiteSpace=wrap;rounded=0;" parent="1" vertex="1">
          <mxGeometry x="40" y="320" width="120" height="40" as="geometry" />
        </mxCell>
        <mxCell id="L1br38w3GBm4ngcBkR2K-7" value="" style="endArrow=classic;html=1;rounded=0;exitX=0.5;exitY=1;exitDx=0;exitDy=0;exitPerimeter=0;entryX=0.5;entryY=0;entryDx=0;entryDy=0;strokeWidth=3;" parent="1" source="L1br38w3GBm4ngcBkR2K-2" target="L1br38w3GBm4ngcBkR2K-3" edge="1">
          <mxGeometry width="50" height="50" relative="1" as="geometry">
            <mxPoint x="500" y="410" as="sourcePoint" />
            <mxPoint x="550" y="360" as="targetPoint" />
          </mxGeometry>
        </mxCell>
        <mxCell id="L1br38w3GBm4ngcBkR2K-8" value="" style="endArrow=classic;html=1;rounded=0;exitX=0.5;exitY=1;exitDx=0;exitDy=0;entryX=0.5;entryY=0;entryDx=0;entryDy=0;strokeWidth=3;" parent="1" source="L1br38w3GBm4ngcBkR2K-3" target="L1br38w3GBm4ngcBkR2K-5" edge="1">
          <mxGeometry width="50" height="50" relative="1" as="geometry">
            <mxPoint x="500" y="410" as="sourcePoint" />
            <mxPoint x="550" y="360" as="targetPoint" />
          </mxGeometry>
        </mxCell>
        <mxCell id="L1br38w3GBm4ngcBkR2K-9" value="&lt;font style=&quot;font-size: 14px;&quot;&gt;&lt;b&gt;VhgBoxplot&lt;/b&gt;&lt;/font&gt;" style="rounded=0;whiteSpace=wrap;html=1;fillColor=#b1ddf0;strokeColor=#10739e;" parent="1" vertex="1">
          <mxGeometry x="320" y="40" width="120" height="80" as="geometry" />
        </mxCell>
        <mxCell id="L1br38w3GBm4ngcBkR2K-10" value="&lt;font style=&quot;font-size: 14px;&quot;&gt;&lt;b&gt;VhgIdentityScatterPlot&lt;/b&gt;&lt;/font&gt;" style="rounded=0;whiteSpace=wrap;html=1;fillColor=#b1ddf0;strokeColor=#10739e;" parent="1" vertex="1">
          <mxGeometry x="320" y="320" width="160" height="80" as="geometry" />
        </mxCell>
        <mxCell id="L1br38w3GBm4ngcBkR2K-11" value="&lt;b&gt;VhgIdenFacetedScatterPlot&lt;/b&gt;" style="rounded=0;whiteSpace=wrap;html=1;fillColor=#b1ddf0;strokeColor=#10739e;" parent="1" vertex="1">
          <mxGeometry x="320" y="470" width="160" height="80" as="geometry" />
        </mxCell>
        <mxCell id="L1br38w3GBm4ngcBkR2K-12" value="&lt;font style=&quot;font-size: 14px;&quot;&gt;&lt;b&gt;vhRunsBarplot&lt;/b&gt;&lt;/font&gt;" style="rounded=0;whiteSpace=wrap;html=1;fillColor=#ffcccc;strokeColor=#36393d;" parent="1" vertex="1">
          <mxGeometry x="330" y="610" width="120" height="80" as="geometry" />
        </mxCell>
        <mxCell id="L1br38w3GBm4ngcBkR2K-13" value="&lt;font size=&quot;1&quot; style=&quot;&quot;&gt;&lt;b style=&quot;font-size: 13px;&quot;&gt;vhSumHitsBarplot&lt;/b&gt;&lt;/font&gt;" style="rounded=0;whiteSpace=wrap;html=1;fillColor=#ffcccc;strokeColor=#36393d;" parent="1" vertex="1">
          <mxGeometry x="290" y="740" width="120" height="80" as="geometry" />
        </mxCell>
        <mxCell id="L1br38w3GBm4ngcBkR2K-14" value="" style="endArrow=classic;html=1;rounded=0;exitX=1;exitY=0.5;exitDx=0;exitDy=0;entryX=0;entryY=0.5;entryDx=0;entryDy=0;" parent="1" source="L1br38w3GBm4ngcBkR2K-5" target="L1br38w3GBm4ngcBkR2K-9" edge="1">
          <mxGeometry width="50" height="50" relative="1" as="geometry">
            <mxPoint x="500" y="350" as="sourcePoint" />
            <mxPoint x="550" y="300" as="targetPoint" />
          </mxGeometry>
        </mxCell>
        <mxCell id="L1br38w3GBm4ngcBkR2K-16" value="" style="endArrow=classic;html=1;rounded=0;exitX=1;exitY=0.5;exitDx=0;exitDy=0;entryX=-0.033;entryY=0.425;entryDx=0;entryDy=0;entryPerimeter=0;" parent="1" source="L1br38w3GBm4ngcBkR2K-5" target="L1br38w3GBm4ngcBkR2K-10" edge="1">
          <mxGeometry width="50" height="50" relative="1" as="geometry">
            <mxPoint x="500" y="350" as="sourcePoint" />
            <mxPoint x="550" y="300" as="targetPoint" />
          </mxGeometry>
        </mxCell>
        <mxCell id="L1br38w3GBm4ngcBkR2K-17" value="" style="endArrow=classic;html=1;rounded=0;exitX=1;exitY=0.5;exitDx=0;exitDy=0;entryX=0;entryY=0.5;entryDx=0;entryDy=0;" parent="1" source="L1br38w3GBm4ngcBkR2K-5" target="L1br38w3GBm4ngcBkR2K-11" edge="1">
          <mxGeometry width="50" height="50" relative="1" as="geometry">
            <mxPoint x="500" y="350" as="sourcePoint" />
            <mxPoint x="550" y="300" as="targetPoint" />
          </mxGeometry>
        </mxCell>
        <mxCell id="L1br38w3GBm4ngcBkR2K-18" value="" style="endArrow=classic;html=1;rounded=0;exitX=1;exitY=0.5;exitDx=0;exitDy=0;entryX=0;entryY=0.5;entryDx=0;entryDy=0;" parent="1" source="L1br38w3GBm4ngcBkR2K-5" target="L1br38w3GBm4ngcBkR2K-12" edge="1">
          <mxGeometry relative="1" as="geometry">
            <mxPoint x="480" y="330" as="sourcePoint" />
            <mxPoint x="580" y="330" as="targetPoint" />
          </mxGeometry>
        </mxCell>
        <mxCell id="L1br38w3GBm4ngcBkR2K-19" value="&lt;font style=&quot;font-size: 13px;&quot;&gt;&lt;b&gt;vh_file only&lt;/b&gt;&lt;/font&gt;" style="edgeLabel;resizable=0;html=1;;align=center;verticalAlign=middle;" parent="L1br38w3GBm4ngcBkR2K-18" connectable="0" vertex="1">
          <mxGeometry relative="1" as="geometry">
            <mxPoint x="3" as="offset" />
          </mxGeometry>
        </mxCell>
        <mxCell id="L1br38w3GBm4ngcBkR2K-21" value="" style="endArrow=classic;html=1;rounded=0;exitX=1;exitY=0.5;exitDx=0;exitDy=0;entryX=-0.033;entryY=0.65;entryDx=0;entryDy=0;entryPerimeter=0;" parent="1" source="L1br38w3GBm4ngcBkR2K-5" target="L1br38w3GBm4ngcBkR2K-13" edge="1">
          <mxGeometry relative="1" as="geometry">
            <mxPoint x="480" y="330" as="sourcePoint" />
            <mxPoint x="580" y="330" as="targetPoint" />
          </mxGeometry>
        </mxCell>
        <mxCell id="L1br38w3GBm4ngcBkR2K-22" value="&lt;font style=&quot;font-size: 14px;&quot;&gt;&lt;b&gt;vh_file only&lt;/b&gt;&lt;/font&gt;" style="edgeLabel;resizable=0;html=1;;align=center;verticalAlign=middle;" parent="L1br38w3GBm4ngcBkR2K-21" connectable="0" vertex="1">
          <mxGeometry relative="1" as="geometry" />
        </mxCell>
        <mxCell id="L1br38w3GBm4ngcBkR2K-25" value="&lt;b&gt;Plot&lt;/b&gt;" style="rounded=1;whiteSpace=wrap;html=1;fillColor=#ffff88;strokeColor=#36393d;" parent="1" vertex="1">
          <mxGeometry x="720" y="120" width="90" height="40" as="geometry" />
        </mxCell>
        <mxCell id="L1br38w3GBm4ngcBkR2K-26" value="&lt;b&gt;Plot&lt;/b&gt;" style="rounded=1;whiteSpace=wrap;html=1;fillColor=#ffff88;strokeColor=#36393d;" parent="1" vertex="1">
          <mxGeometry x="625" y="340" width="90" height="40" as="geometry" />
        </mxCell>
        <mxCell id="L1br38w3GBm4ngcBkR2K-27" value="&lt;b&gt;Plot&lt;/b&gt;" style="rounded=1;whiteSpace=wrap;html=1;fillColor=#ffff88;strokeColor=#36393d;" parent="1" vertex="1">
          <mxGeometry x="630" y="490" width="90" height="40" as="geometry" />
        </mxCell>
        <mxCell id="L1br38w3GBm4ngcBkR2K-28" value="&lt;b&gt;Plot&lt;/b&gt;" style="rounded=1;whiteSpace=wrap;html=1;fillColor=#ffff88;strokeColor=#36393d;" parent="1" vertex="1">
          <mxGeometry x="630" y="630" width="90" height="40" as="geometry" />
        </mxCell>
        <mxCell id="L1br38w3GBm4ngcBkR2K-29" value="&lt;b&gt;Plot&lt;/b&gt;" style="rounded=1;whiteSpace=wrap;html=1;fillColor=#ffff88;strokeColor=#36393d;" parent="1" vertex="1">
          <mxGeometry x="630" y="760" width="90" height="40" as="geometry" />
        </mxCell>
        <mxCell id="L1br38w3GBm4ngcBkR2K-30" value="" style="endArrow=classic;html=1;rounded=0;exitX=1;exitY=0.5;exitDx=0;exitDy=0;entryX=0;entryY=0.5;entryDx=0;entryDy=0;strokeWidth=3;" parent="1" source="L1br38w3GBm4ngcBkR2K-11" target="L1br38w3GBm4ngcBkR2K-27" edge="1">
          <mxGeometry width="50" height="50" relative="1" as="geometry">
            <mxPoint x="500" y="350" as="sourcePoint" />
            <mxPoint x="550" y="300" as="targetPoint" />
          </mxGeometry>
        </mxCell>
        <mxCell id="L1br38w3GBm4ngcBkR2K-31" value="" style="endArrow=classic;html=1;rounded=0;exitX=1;exitY=0.5;exitDx=0;exitDy=0;entryX=0;entryY=0.5;entryDx=0;entryDy=0;strokeWidth=3;" parent="1" source="L1br38w3GBm4ngcBkR2K-12" target="L1br38w3GBm4ngcBkR2K-28" edge="1">
          <mxGeometry width="50" height="50" relative="1" as="geometry">
            <mxPoint x="440" y="439.5" as="sourcePoint" />
            <mxPoint x="520" y="439.5" as="targetPoint" />
          </mxGeometry>
        </mxCell>
        <mxCell id="L1br38w3GBm4ngcBkR2K-32" value="" style="endArrow=classic;html=1;rounded=0;exitX=1;exitY=0.5;exitDx=0;exitDy=0;entryX=0;entryY=0.5;entryDx=0;entryDy=0;strokeWidth=3;" parent="1" source="L1br38w3GBm4ngcBkR2K-13" target="L1br38w3GBm4ngcBkR2K-29" edge="1">
          <mxGeometry width="50" height="50" relative="1" as="geometry">
            <mxPoint x="500" y="340" as="sourcePoint" />
            <mxPoint x="580" y="340" as="targetPoint" />
            <Array as="points">
              <mxPoint x="460" y="780" />
            </Array>
          </mxGeometry>
        </mxCell>
        <mxCell id="L1br38w3GBm4ngcBkR2K-33" value="" style="endArrow=classic;html=1;rounded=0;exitX=1;exitY=0.5;exitDx=0;exitDy=0;entryX=0;entryY=0.5;entryDx=0;entryDy=0;strokeWidth=3;" parent="1" source="L1br38w3GBm4ngcBkR2K-10" target="L1br38w3GBm4ngcBkR2K-26" edge="1">
          <mxGeometry width="50" height="50" relative="1" as="geometry">
            <mxPoint x="480" y="200" as="sourcePoint" />
            <mxPoint x="560" y="200" as="targetPoint" />
          </mxGeometry>
        </mxCell>
        <mxCell id="L1br38w3GBm4ngcBkR2K-34" value="" style="endArrow=classic;html=1;rounded=0;exitX=1;exitY=0.5;exitDx=0;exitDy=0;entryX=0;entryY=0.5;entryDx=0;entryDy=0;strokeWidth=3;" parent="1" target="L1br38w3GBm4ngcBkR2K-25" edge="1">
          <mxGeometry width="50" height="50" relative="1" as="geometry">
            <mxPoint x="440" y="79.5" as="sourcePoint" />
            <mxPoint x="520" y="79.5" as="targetPoint" />
          </mxGeometry>
        </mxCell>
        <mxCell id="L1br38w3GBm4ngcBkR2K-35" value="&lt;b&gt;summary_stats&lt;/b&gt;" style="rounded=1;whiteSpace=wrap;html=1;fillColor=#ffcc99;strokeColor=#36393d;" parent="1" vertex="1">
          <mxGeometry x="720" y="70" width="110" height="40" as="geometry" />
        </mxCell>
        <mxCell id="L1br38w3GBm4ngcBkR2K-36" value="" style="endArrow=classic;html=1;rounded=0;exitX=1;exitY=0.5;exitDx=0;exitDy=0;entryX=0;entryY=0.5;entryDx=0;entryDy=0;strokeWidth=3;" parent="1" source="L1br38w3GBm4ngcBkR2K-9" target="L1br38w3GBm4ngcBkR2K-35" edge="1">
          <mxGeometry width="50" height="50" relative="1" as="geometry">
            <mxPoint x="450" y="89.5" as="sourcePoint" />
            <mxPoint x="570" y="90" as="targetPoint" />
          </mxGeometry>
        </mxCell>
        <mxCell id="L1br38w3GBm4ngcBkR2K-37" value="&lt;b&gt;Outlier&lt;/b&gt;" style="rounded=1;whiteSpace=wrap;html=1;fillColor=#e1d5e7;strokeColor=#9673a6;" parent="1" vertex="1">
          <mxGeometry x="720" y="170" width="110" height="40" as="geometry" />
        </mxCell>
        <mxCell id="L1br38w3GBm4ngcBkR2K-38" value="" style="endArrow=classic;html=1;rounded=0;exitX=1;exitY=0.5;exitDx=0;exitDy=0;entryX=0;entryY=0.5;entryDx=0;entryDy=0;strokeWidth=3;" parent="1" source="L1br38w3GBm4ngcBkR2K-9" target="L1br38w3GBm4ngcBkR2K-37" edge="1">
          <mxGeometry relative="1" as="geometry">
            <mxPoint x="480" y="330" as="sourcePoint" />
            <mxPoint x="580" y="330" as="targetPoint" />
          </mxGeometry>
        </mxCell>
        <mxCell id="L1br38w3GBm4ngcBkR2K-39" value="&lt;b&gt;E-value/Contig_len only&lt;/b&gt;" style="edgeLabel;resizable=0;html=1;;align=center;verticalAlign=middle;" parent="L1br38w3GBm4ngcBkR2K-38" connectable="0" vertex="1">
          <mxGeometry relative="1" as="geometry">
            <mxPoint x="-5" y="5" as="offset" />
          </mxGeometry>
        </mxCell>
        <mxCell id="L1br38w3GBm4ngcBkR2K-45" value="&lt;b&gt;rows_belowthres&lt;/b&gt;" style="rounded=1;whiteSpace=wrap;html=1;fillColor=#cdeb8b;strokeColor=#36393d;" parent="1" vertex="1">
          <mxGeometry x="720" y="10" width="110" height="40" as="geometry" />
        </mxCell>
        <mxCell id="L1br38w3GBm4ngcBkR2K-46" value="&lt;b&gt;E-value only&lt;/b&gt;" style="edgeLabel;resizable=0;html=1;;align=center;verticalAlign=middle;" parent="1" connectable="0" vertex="1">
          <mxGeometry x="569.9966119617061" y="40.00264478468243" as="geometry" />
        </mxCell>
        <mxCell id="L1br38w3GBm4ngcBkR2K-47" value="" style="endArrow=classic;html=1;rounded=0;exitX=1;exitY=0.5;exitDx=0;exitDy=0;entryX=0;entryY=0.5;entryDx=0;entryDy=0;strokeWidth=3;" parent="1" source="L1br38w3GBm4ngcBkR2K-9" target="L1br38w3GBm4ngcBkR2K-45" edge="1">
          <mxGeometry width="50" height="50" relative="1" as="geometry">
            <mxPoint x="500" y="350" as="sourcePoint" />
            <mxPoint x="550" y="300" as="targetPoint" />
          </mxGeometry>
        </mxCell>
        <mxCell id="L1br38w3GBm4ngcBkR2K-48" value="&lt;b style=&quot;font-size: 13px;&quot;&gt;&lt;font style=&quot;font-size: 13px;&quot;&gt;&lt;u&gt;&lt;i&gt;y_column&lt;/i&gt;&lt;/u&gt;&lt;/font&gt;&lt;/b&gt;&lt;div style=&quot;font-size: 13px;&quot;&gt;&lt;b&gt;&lt;font style=&quot;font-size: 13px;&quot;&gt;&lt;br&gt;&lt;/font&gt;&lt;/b&gt;&lt;div&gt;&lt;b&gt;&lt;font style=&quot;font-size: 13px;&quot;&gt;-&amp;nbsp;ViralRefSeq_E&lt;/font&gt;&lt;/b&gt;&lt;/div&gt;&lt;div&gt;&lt;b&gt;&lt;font style=&quot;font-size: 13px;&quot;&gt;&amp;nbsp;-ViralRefSeq_ident&lt;/font&gt;&lt;/b&gt;&lt;/div&gt;&lt;div&gt;&lt;b&gt;&lt;font style=&quot;font-size: 13px;&quot;&gt;-&amp;nbsp;contig_len&lt;/font&gt;&lt;/b&gt;&lt;/div&gt;&lt;/div&gt;" style="text;html=1;align=center;verticalAlign=middle;whiteSpace=wrap;rounded=0;" parent="1" vertex="1">
          <mxGeometry x="290" y="130" width="170" height="90" as="geometry" />
        </mxCell>
        <mxCell id="L1br38w3GBm4ngcBkR2K-49" value="&lt;span style=&quot;font-size: 13px;&quot;&gt;&lt;b&gt;vhRunsTable&lt;/b&gt;&lt;/span&gt;" style="rounded=0;whiteSpace=wrap;html=1;fillColor=#ffcccc;strokeColor=#36393d;" parent="1" vertex="1">
          <mxGeometry x="290" y="840" width="120" height="80" as="geometry" />
        </mxCell>
        <mxCell id="L1br38w3GBm4ngcBkR2K-50" value="" style="endArrow=classic;html=1;rounded=0;exitX=1;exitY=0.5;exitDx=0;exitDy=0;entryX=0;entryY=0.5;entryDx=0;entryDy=0;" parent="1" source="L1br38w3GBm4ngcBkR2K-5" target="L1br38w3GBm4ngcBkR2K-49" edge="1">
          <mxGeometry relative="1" as="geometry">
            <mxPoint x="140" y="355" as="sourcePoint" />
            <mxPoint x="260" y="945" as="targetPoint" />
            <Array as="points">
              <mxPoint x="150" y="710" />
            </Array>
          </mxGeometry>
        </mxCell>
        <mxCell id="L1br38w3GBm4ngcBkR2K-51" value="&lt;font style=&quot;font-size: 14px;&quot;&gt;&lt;b&gt;vh_file only&lt;/b&gt;&lt;/font&gt;" style="edgeLabel;resizable=0;html=1;;align=center;verticalAlign=middle;" parent="L1br38w3GBm4ngcBkR2K-50" connectable="0" vertex="1">
          <mxGeometry relative="1" as="geometry" />
        </mxCell>
        <mxCell id="L1br38w3GBm4ngcBkR2K-52" value="&lt;b&gt;&lt;font style=&quot;font-size: 14px;&quot;&gt;Table&lt;/font&gt;&lt;/b&gt;" style="rounded=1;whiteSpace=wrap;html=1;fillColor=#647687;fontColor=#ffffff;strokeColor=#314354;" parent="1" vertex="1">
          <mxGeometry x="620" y="860" width="100" height="40" as="geometry" />
        </mxCell>
        <mxCell id="L1br38w3GBm4ngcBkR2K-53" value="" style="endArrow=classic;html=1;rounded=0;exitX=1;exitY=0.5;exitDx=0;exitDy=0;entryX=0;entryY=0.5;entryDx=0;entryDy=0;" parent="1" source="L1br38w3GBm4ngcBkR2K-49" target="L1br38w3GBm4ngcBkR2K-52" edge="1">
          <mxGeometry width="50" height="50" relative="1" as="geometry">
            <mxPoint x="500" y="940" as="sourcePoint" />
            <mxPoint x="550" y="890" as="targetPoint" />
          </mxGeometry>
        </mxCell>
        <mxCell id="L1br38w3GBm4ngcBkR2K-54" value="&lt;b&gt;sample_run&lt;/b&gt;" style="rounded=1;whiteSpace=wrap;html=1;fillColor=#ffcc99;strokeColor=#36393d;" parent="1" vertex="1">
          <mxGeometry x="620" y="580" width="100" height="40" as="geometry" />
        </mxCell>
        <mxCell id="L1br38w3GBm4ngcBkR2K-55" value="" style="endArrow=classic;html=1;rounded=0;exitX=1;exitY=0.5;exitDx=0;exitDy=0;strokeWidth=3;entryX=0;entryY=0.5;entryDx=0;entryDy=0;" parent="1" target="L1br38w3GBm4ngcBkR2K-54" edge="1">
          <mxGeometry width="50" height="50" relative="1" as="geometry">
            <mxPoint x="450" y="650" as="sourcePoint" />
            <mxPoint x="620" y="600" as="targetPoint" />
          </mxGeometry>
        </mxCell>
        <mxCell id="L1br38w3GBm4ngcBkR2K-56" value="&lt;b&gt;vh_group&lt;/b&gt;" style="rounded=1;whiteSpace=wrap;html=1;fillColor=#ffcc99;strokeColor=#36393d;" parent="1" vertex="1">
          <mxGeometry x="625" y="710" width="100" height="40" as="geometry" />
        </mxCell>
        <mxCell id="L1br38w3GBm4ngcBkR2K-57" value="" style="endArrow=classic;html=1;rounded=0;exitX=0.992;exitY=0.425;exitDx=0;exitDy=0;entryX=0;entryY=0.5;entryDx=0;entryDy=0;strokeWidth=3;exitPerimeter=0;" parent="1" source="L1br38w3GBm4ngcBkR2K-13" target="L1br38w3GBm4ngcBkR2K-56" edge="1">
          <mxGeometry width="50" height="50" relative="1" as="geometry">
            <mxPoint x="420" y="790" as="sourcePoint" />
            <mxPoint x="640" y="790" as="targetPoint" />
            <Array as="points" />
          </mxGeometry>
        </mxCell>
        <mxCell id="L1br38w3GBm4ngcBkR2K-58" value="&lt;b&gt;Plot&lt;/b&gt;" style="rounded=1;whiteSpace=wrap;html=1;fillColor=#ffff88;strokeColor=#36393d;" parent="1" vertex="1">
          <mxGeometry x="40" y="960" width="120" height="40" as="geometry" />
        </mxCell>
        <mxCell id="L1br38w3GBm4ngcBkR2K-59" value="&lt;b&gt;Tabular Obj (DF)&lt;/b&gt;" style="rounded=1;whiteSpace=wrap;html=1;fillColor=#ffcc99;strokeColor=#36393d;" parent="1" vertex="1">
          <mxGeometry x="40" y="1030" width="120" height="40" as="geometry" />
        </mxCell>
        <mxCell id="L1br38w3GBm4ngcBkR2K-62" value="&lt;div&gt;&lt;b&gt;vhgTabularRasa&lt;/b&gt;&lt;br&gt;&lt;/div&gt;" style="rounded=0;whiteSpace=wrap;html=1;fillColor=#b1ddf0;strokeColor=#10739e;" parent="1" vertex="1">
          <mxGeometry x="240" y="1030" width="185" height="40" as="geometry" />
        </mxCell>
        <mxCell id="L1br38w3GBm4ngcBkR2K-65" value="" style="endArrow=classic;html=1;rounded=0;exitX=1;exitY=0.5;exitDx=0;exitDy=0;entryX=0;entryY=0.5;entryDx=0;entryDy=0;strokeWidth=3;" parent="1" source="L1br38w3GBm4ngcBkR2K-59" target="L1br38w3GBm4ngcBkR2K-62" edge="1">
          <mxGeometry width="50" height="50" relative="1" as="geometry">
            <mxPoint x="160" y="980" as="sourcePoint" />
            <mxPoint x="240" y="980" as="targetPoint" />
          </mxGeometry>
        </mxCell>
        <mxCell id="L1br38w3GBm4ngcBkR2K-66" value="&lt;b&gt;&lt;font style=&quot;font-size: 14px;&quot;&gt;Table&lt;/font&gt;&lt;/b&gt;" style="rounded=1;whiteSpace=wrap;html=1;fillColor=#647687;fontColor=#ffffff;strokeColor=#314354;" parent="1" vertex="1">
          <mxGeometry x="470" y="1030" width="100" height="40" as="geometry" />
        </mxCell>
        <mxCell id="L1br38w3GBm4ngcBkR2K-67" value="" style="endArrow=classic;html=1;rounded=0;exitX=1;exitY=0.5;exitDx=0;exitDy=0;entryX=0;entryY=0.5;entryDx=0;entryDy=0;strokeWidth=3;" parent="1" source="L1br38w3GBm4ngcBkR2K-62" target="L1br38w3GBm4ngcBkR2K-66" edge="1">
          <mxGeometry width="50" height="50" relative="1" as="geometry">
            <mxPoint x="520" y="940" as="sourcePoint" />
            <mxPoint x="570" y="890" as="targetPoint" />
          </mxGeometry>
        </mxCell>
        <mxCell id="L1br38w3GBm4ngcBkR2K-68" value="&lt;b&gt;exportVirusGt&amp;nbsp;&lt;/b&gt;" style="rounded=0;whiteSpace=wrap;html=1;fillColor=#b1ddf0;strokeColor=#10739e;" parent="1" vertex="1">
          <mxGeometry x="620" y="1020" width="185" height="60" as="geometry" />
        </mxCell>
        <mxCell id="L1br38w3GBm4ngcBkR2K-69" value="&lt;b&gt;exportVirusPlot&lt;/b&gt;" style="rounded=0;whiteSpace=wrap;html=1;fillColor=#b1ddf0;strokeColor=#10739e;" parent="1" vertex="1">
          <mxGeometry x="620" y="940" width="185" height="60" as="geometry" />
        </mxCell>
        <mxCell id="L1br38w3GBm4ngcBkR2K-70" value="" style="endArrow=classic;html=1;rounded=0;exitX=1;exitY=0.5;exitDx=0;exitDy=0;entryX=-0.016;entryY=0.617;entryDx=0;entryDy=0;entryPerimeter=0;strokeWidth=3;" parent="1" source="L1br38w3GBm4ngcBkR2K-58" target="L1br38w3GBm4ngcBkR2K-69" edge="1">
          <mxGeometry width="50" height="50" relative="1" as="geometry">
            <mxPoint x="425" y="980" as="sourcePoint" />
            <mxPoint x="570" y="890" as="targetPoint" />
          </mxGeometry>
        </mxCell>
        <mxCell id="L1br38w3GBm4ngcBkR2K-71" value="" style="endArrow=classic;html=1;rounded=0;exitX=1;exitY=0.5;exitDx=0;exitDy=0;entryX=0;entryY=0.5;entryDx=0;entryDy=0;strokeWidth=3;" parent="1" source="L1br38w3GBm4ngcBkR2K-66" target="L1br38w3GBm4ngcBkR2K-68" edge="1">
          <mxGeometry width="50" height="50" relative="1" as="geometry">
            <mxPoint x="520" y="940" as="sourcePoint" />
            <mxPoint x="570" y="890" as="targetPoint" />
          </mxGeometry>
        </mxCell>
      </root>
    </mxGraphModel>
  </diagram>
</mxfile>
